<?xml version="1.0" encoding="utf-8"?>
<!-- Generator: Adobe Illustrator 15.0.0, SVG Export Plug-In . SVG Version: 6.00 Build 0)  -->
<!DOCTYPE svg PUBLIC "-//W3C//DTD SVG 1.1//EN" "http://www.w3.org/Graphics/SVG/1.1/DTD/svg11.dtd">
<svg version="1.1" id="Ebene_1" xmlns="http://www.w3.org/2000/svg" xmlns:xlink="http://www.w3.org/1999/xlink" x="0px" y="0px"
	 width="595.281px" height="595.281px" viewBox="123.305 0 595.281 595.281" enable-background="new 123.305 0 595.281 595.281"
	 xml:space="preserve">
<path fill="#FF8700" d="M123.305,0h595.281v595.281H123.305V0z"/>
<path fill="#FFFFFF" enable-background="new    " d="M253.408,470.835c5.182-31.994,16.99-45.61,20.687-49.236
	c26.753-8.155,48.357-17.928,67.538-26.61l6.516-2.945c17.75,17.468,44.75,27.758,73.248,27.758
	c28.663,0,55.022-10.29,72.417-27.758l6.443,2.928c19.246,8.7,40.987,18.546,67.881,26.713c3.922,3.525,15.468,16.49,20.528,49.151
	l2.177,24.748h24.301c-2.438-79.194-36.418-96.479-36.418-96.479c-40.985-11.937-69.559-28.27-98.054-39.455
	c1.753,5.757,2.021,8.7-1.447,12.21c-14.312,15.756-36.123,23.239-57.861,23.239c-22.591,0-45.056-8.085-58.665-23.239
	c-3.516-3.576-2.857-6.558-0.761-12.478c-28.724,11.142-57.477,27.698-98.755,39.723c0,0-33.983,19.791-36.402,96.479h24.266
	L253.408,470.835L253.408,470.835z"/>
<path fill="#FFFFFF" enable-background="new    " d="M354.233,362.631c2.542-1.062,5.153-2.278,7.705-3.25
	c-2.097,5.92-2.755,8.901,0.761,12.478c3.201,3.566,6.92,6.658,10.971,9.457l7.313-2.863l3.755-10.719l0.669-1.921
	c3.119-8.606,8.414-23.679,10.498-50.446c-8.674-4.553-16.584-10.5-23.417-17.571c-0.685,36.434-7.418,52.488-10.625,61.586
	C359.347,360.353,356.775,361.57,354.233,362.631L354.233,362.631z M457.477,366.875l3.431,11.542l7.236,2.861
	c3.994-2.761,7.771-5.807,11.081-9.419c3.429-3.51,3.163-6.453,1.447-12.21l0.028,0.001c-2.694-9.099-9.233-25.216-10.805-62.362
	c-6.738,7.083-14.548,13.012-23.088,17.674c2.364,25.554,6.998,40.323,9.717,48.848L457.477,366.875L457.477,366.875z"/>
<path fill="#FFFFFF" enable-background="new    " d="M430.662,124.433c27.234,0,48.563,20.655,48.563,47.005v54.452
	c0,27.69-31.841,71.75-58.28,71.75c-26.44,0-58.246-44.06-58.246-71.75v-54.452c0-25.022,22.703-47.005,48.533-47.005H430.662
	 M430.662,99.693h-19.43c-38.82,0-72.799,32.162-72.799,71.745v54.452c0,39.589,41.256,96.49,82.512,96.49
	c41.289,0,82.512-56.901,82.512-96.49v-54.452C503.457,131.854,471.915,99.693,430.662,99.693z"/>
<path fill="#FFFFFF" d="M670.709,289.965h-49.605v49.605c0,4.252-2.835,7.087-7.088,7.087h-14.173c-4.252,0-7.086-2.835-7.086-7.087
	v-49.605h-49.606c-4.252,0-7.087-2.835-7.087-7.088v-14.173c0-4.252,2.835-7.086,7.087-7.086h49.606v-49.607
	c0-4.252,2.834-7.087,7.086-7.087h14.173c4.253,0,7.088,2.835,7.088,7.087v49.607h49.605c4.252,0,7.087,2.834,7.087,7.086v14.173
	C677.796,287.13,674.961,289.965,670.709,289.965z"/>
</svg>
